<svg id="Layer_1" enable-background="new 0 0 70 70" height="512" viewBox="0 0 70 70" width="512" xmlns="http://www.w3.org/2000/svg"><path d="m65.0805664 7.0957031h-10.2739258v-2.9326172c0-1.1923828-.9702148-2.1630859-2.1630859-2.1630859h-35.2871094c-1.1928711 0-2.1630859.9707031-2.1630859 2.1630859v2.9326172h-10.2739258c-.5522461 0-1 .4472656-1 1v2.5244141c0 8.0615234 3.9291992 15.6474609 10.5102539 20.2929688l1.1870117.8378906c.1559448.1094971.3328857.1609497.5101929.1726685 1.831665 5.7510376 6.2284546 10.3527222 11.835022 12.4943848v5.0917358h-7.5800781c-.5522461 0-1 .4472656-1 1v6.8193359h-4.4741211c-.5522461 0-1 .4472656-1 1v8.6708984c0 .5527344.4477539 1 1 1h40.1845703c.5522461 0 1-.4472656 1-1v-8.6708984c0-.5527344-.4477539-1-1-1h-4.4741211v-6.8193359c0-.5527344-.4477539-1-1-1h-7.5800781v-5.0917358c5.6065674-2.1416626 10.0033569-6.7433472 11.835022-12.4943848.1773071-.0117188.354248-.0631714.5101929-.1726685l1.1870117-.8378906c6.5810547-4.6455078 10.5102539-12.2314453 10.5102539-20.2929688v-2.5244141c-.0000001-.5527343-.447754-1-1.0000001-1zm-59.1611328 3.5244141v-1.5244141h9.2739258v16.8310547c0 1.119751.1156006 2.2108154.2950439 3.2803955-5.9929809-4.2763672-9.5689697-11.2145996-9.5689697-18.5870361zm48.1728516 55.3798828h-38.1845704v-6.6708984h4.4741211 29.2363281 4.4741211v6.6708984zm-5.4741211-8.6708984h-27.2363282v-5.8193359h27.2363281v5.8193359zm-8.5800782-7.819336h-10.0761718v-4.4504395c1.6118774.4250489 3.2945556.6740723 5.0380859.6740723s3.4262085-.2490234 5.0380859-.6740723zm12.7685547-23.5830078c0 7.8392944-5.0986328 14.49823-12.1491699 16.8696899-.0043945.0018311-.0088501.0030518-.0132446.0048828-1.7761231.5958253-3.670044.9320679-5.6442261.9320679s-3.868103-.3362427-5.6442261-.9320679c-.0043945-.0018311-.0088501-.0030518-.0132446-.0048828-7.0505371-2.37146-12.1491699-9.0303955-12.1491699-16.8696899v-21.7636719c0-.0898437.0732422-.1630859.1630859-.1630859h35.2871094c.0898438 0 .1630859.0732422.1630859.1630859zm11.2739258-15.3066406c0 7.3724365-3.5759888 14.3106689-9.5689697 18.5870361.1794434-1.0695801.2950439-2.1606445.2950439-3.2803955v-16.8310547h9.2739258z"/><path d="m45.5927734 16.6757812-6.699707-.9746094-2.996582-6.0703125c-.3369141-.6835938-1.4560547-.6835938-1.7929688 0l-2.996582 6.0703125-6.699707.9746094c-.3764648.0546875-.6894531.3183594-.8071289.6806641-.1176758.3613281-.0195312.7587891.253418 1.0244141l4.8476562 4.7255859-1.1445312 6.6728516c-.0639648.375.090332.7539062.3979492.9775391.309082.2246094.7172852.2548828 1.0532227.0761719l5.9921874-3.1503907 5.9921875 3.1503906c.1464844.0771484.3061523.1152344.465332.1152344.2070312 0 .4135742-.0644531.5878906-.1914062.3076172-.2236328.4619141-.6025391.3979492-.9775391l-1.1445312-6.6728516 4.8476562-4.7255859c.2729492-.265625.3710938-.6630859.253418-1.0244141-.1176757-.3623047-.430664-.6259765-.8071289-.6806641zm-6.0659179 5.3652344c-.2358398.2294922-.3432617.5605469-.2880859.8847656l.890625 5.1943359-4.6640625-2.4521484c-.1455079-.0771484-.3056641-.1152343-.4653321-.1152343s-.3198242.0380859-.465332.1152344l-4.6640625 2.4521484.890625-5.1943359c.0551758-.3242188-.0522461-.6552734-.2880859-.8847656l-3.7729492-3.6777344 5.2148438-.7587891c.3256836-.046875.6069336-.2519531.7524414-.546875l2.3325194-4.7246094 2.3325195 4.7246094c.1455078.2949219.4267578.5.7524414.546875l5.2148438.7587891z"/></svg>